<?xml version="1.0" encoding="UTF-8"?>
<svg width="48px" height="26px" viewBox="0 0 48 26" version="1.1" xmlns="http://www.w3.org/2000/svg" xmlns:xlink="http://www.w3.org/1999/xlink">
    <!-- Generator: sketchtool 63.1 (101010) - https://sketch.com -->
    <title>0D6AE762-669C-4AB3-84DD-641A84799FAA</title>
    <desc>Created with sketchtool.</desc>
    <g id="Round-4" stroke="none" stroke-width="1" fill="none" fill-rule="evenodd">
        <g id="Experts-2" transform="translate(-730.000000, -2515.000000)" fill="#2355F0" fill-rule="nonzero">
            <g id="noun_up-arrow_3145794-copy" transform="translate(754.000000, 2528.000000) rotate(90.000000) translate(-754.000000, -2528.000000) translate(741.000000, 2504.000000)">
                <path d="M25.5442514,14.2707035 L13.8773262,0.456868607 C13.7667989,0.300057834 13.6220178,0.182204333 13.4587818,0.116168643 C13.1403463,-0.0387228809 12.7831745,-0.0387228809 12.4647389,0.116168643 C12.3015029,0.182204333 12.1567218,0.300057834 12.0461945,0.456868607 L0.379269295,14.2707035 C0.0521691116,14.6579956 -0.0755780519,15.2224862 0.0441489249,15.751537 C0.163875902,16.2805878 0.512887643,16.6938236 0.959714803,16.8355823 C1.40654196,16.9773411 1.88330087,16.8260863 2.21040105,16.4387942 L11.6538091,5.41250445 L11.6538091,46.4513638 C11.6538091,47.306652 12.2393988,48 12.9617604,48 C13.6841219,48 14.2697116,47.306652 14.2697116,46.4513638 L14.2697116,5.41250445 L23.7131197,16.5626851 C23.9529275,16.857363 24.2830775,17.0248929 24.6286856,17.027276 C24.9755643,17.0322829 25.3080869,16.863549 25.5442514,16.5626851 C25.8328852,16.2802563 26,15.860042 26,15.4166943 C26,14.9733466 25.8328852,14.5531324 25.5442514,14.2707035 Z" id="Path"></path>
            </g>
        </g>
    </g>
</svg>