<?xml version="1.0" encoding="UTF-8"?>
<svg width="15px" height="13px" viewBox="0 0 15 13" version="1.1" xmlns="http://www.w3.org/2000/svg" xmlns:xlink="http://www.w3.org/1999/xlink">
    <!-- Generator: sketchtool 63.1 (101010) - https://sketch.com -->
    <title>4EA66805-D0DF-4231-AA04-E051A65A9D09</title>
    <desc>Created with sketchtool.</desc>
    <g id="Mobile-(needed)-" stroke="none" stroke-width="1" fill="none" fill-rule="evenodd">
        <g id="Mobile_Home-T" transform="translate(-160.000000, -3208.000000)" fill="#FFFFFF" fill-rule="nonzero">
            <g id="Group" transform="translate(26.000000, 3093.000000)">
                <g id="noun_Arrow_3094092-Copy-3" transform="translate(141.500000, 121.500000) rotate(180.000000) translate(-141.500000, -121.500000) translate(134.000000, 115.000000)">
                    <path d="M5.81875,0.1715 C5.71258333,0.0898333333 5.59008333,0.049 5.45125,0.049 C5.32058333,0.0571666667 5.21033333,0.114333333 5.1205,0.2205 L0.2205,6.11275 L0.18375,6.1495 C0.18375,6.174 0.1715,6.1985 0.147,6.223 L0.13475,6.2475 L0.098,6.43125 L0.147,6.6395 C0.155166667,6.64766667 0.167416667,6.664 0.18375,6.6885 L5.1205,12.62975 C5.17766667,12.70325 5.24708333,12.7563333 5.32875,12.789 C5.41858333,12.8135 5.50433333,12.8216667 5.586,12.8135 C5.67583333,12.7971667 5.75341667,12.7604167 5.81875,12.70325 C5.88408333,12.6460833 5.93308333,12.5766667 5.96575,12.495 C6.00658333,12.4133333 6.01475,12.3275833 5.99025,12.23775 C5.97391667,12.1560833 5.93716667,12.0785 5.88,12.005 L1.6415,6.92125 L14.34475,6.92125 C14.4835833,6.92125 14.5979167,6.87225 14.68775,6.77425 C14.78575,6.68441667 14.83475,6.57008333 14.83475,6.43125 C14.83475,6.29241667 14.78575,6.174 14.68775,6.076 C14.5979167,5.98616667 14.4835833,5.94125 14.34475,5.94125 L1.6415,5.94125 L5.88,0.84525 C5.96166667,0.739083333 5.99841667,0.62475 5.99025,0.50225 C5.97391667,0.363416667 5.91675,0.253166667 5.81875,0.1715 Z" id="Path"></path>
                </g>
            </g>
        </g>
    </g>
</svg>