<?xml version="1.0" encoding="UTF-8"?>
<svg width="78px" height="60px" viewBox="0 0 78 60" version="1.1" xmlns="http://www.w3.org/2000/svg" xmlns:xlink="http://www.w3.org/1999/xlink">
    <!-- Generator: sketchtool 63.1 (101010) - https://sketch.com -->
    <title>6ED8B1D0-7EEE-4E6F-925E-AAB0EF544987</title>
    <desc>Created with sketchtool.</desc>
    <g id="Mobile-(needed)-" stroke="none" stroke-width="1" fill="none" fill-rule="evenodd">
        <g id="home-" transform="translate(-992.000000, -2227.000000)" fill="#56CCE9" fill-rule="nonzero">
            <g id="noun_Eye_2399273-(1)" transform="translate(992.000000, 2227.000000)">
                <path d="M38.7960117,14.0073984 C38.7695039,14.0073984 38.7426914,14.0073984 38.7161836,14.0073984 C29.5563633,14.0314688 21.0470508,18.1802461 15.3705703,25.3902187 C13.4542383,27.8240625 13.4630742,31.2166055 15.3918984,33.6403945 C21.0895547,40.8000938 29.5869844,44.9013398 38.7169453,44.9013398 C38.7431484,44.9013398 38.7701133,44.9013398 38.7964688,44.9013398 C48.0193594,44.8771172 56.564625,40.6821797 62.2417148,33.3916172 C64.0783711,31.0325742 64.0698398,27.744082 62.2206914,25.3949414 C56.5227305,18.1548047 47.9885859,14.0073984 38.7960117,14.0073984 Z M60.5298281,32.058457 C55.2657422,38.8190156 47.3421914,42.7091133 38.7911367,42.7315078 C38.7661523,42.7315078 38.7422344,42.7315078 38.71725,42.7315078 C30.2527266,42.7315078 22.3730508,38.9280937 17.0897695,32.2892578 C15.790582,30.6567422 15.7846406,28.3715859 17.0752969,26.7322148 C22.3390781,20.046457 30.2289609,16.199168 38.7218203,16.176977 C47.2791211,16.1542266 55.2166875,20.0036484 60.5159648,26.7366328 C61.7464453,28.3001367 61.7522344,30.4885547 60.5298281,32.058457 Z" id="Shape"></path>
                <path d="M38.7734648,20.6669531 C33.9281719,20.6669531 29.986125,24.609 29.986125,29.454293 C29.986125,34.2995859 33.9281719,38.2416328 38.7734648,38.2416328 C43.6189102,38.2416328 47.5608047,34.2995859 47.5608047,29.454293 C47.5608047,24.609 43.6189102,20.6669531 38.7734648,20.6669531 Z M38.7734648,36.0718008 C35.1245273,36.0718008 32.155957,33.1032305 32.155957,29.454293 C32.155957,25.8053555 35.1245273,22.8367852 38.7734648,22.8367852 C42.4224023,22.8367852 45.391125,25.8053555 45.391125,29.454293 C45.391125,33.1032305 42.4224023,36.0718008 38.7734648,36.0718008 Z" id="Shape"></path>
                <path d="M38.5429688,9.89807812 C39.1421367,9.89807812 39.6278086,9.41240625 39.6278086,8.81323828 L39.6278086,1.21935938 C39.6278086,0.620191406 39.1421367,0.134519531 38.5429688,0.134519531 C37.9438008,0.134519531 37.4581289,0.620191406 37.4581289,1.21935938 L37.4581289,8.81323828 C37.4581289,9.41240625 37.9438008,9.89807812 38.5429688,9.89807812 Z" id="Path"></path>
                <path d="M38.5429688,49.8206719 C37.9438008,49.8206719 37.4581289,50.3063438 37.4581289,50.9055117 L37.4581289,58.4993906 C37.4581289,59.0985586 37.9438008,59.5842305 38.5429688,59.5842305 C39.1421367,59.5842305 39.6278086,59.0985586 39.6278086,58.4993906 L39.6278086,50.9055117 C39.6278086,50.3063438 39.1421367,49.8206719 38.5429688,49.8206719 Z" id="Path"></path>
                <path d="M75.9703242,28.7745352 L68.3764453,28.7745352 C67.7772773,28.7745352 67.2916055,29.260207 67.2916055,29.859375 C67.2916055,30.458543 67.7772773,30.9442148 68.3764453,30.9442148 L75.9703242,30.9442148 C76.5694922,30.9442148 77.0551641,30.458543 77.0551641,29.859375 C77.0551641,29.260207 76.5694922,28.7745352 75.9703242,28.7745352 Z" id="Path"></path>
                <path d="M8.70964453,28.7745352 L1.11561328,28.7745352 C0.516445312,28.7745352 0.0307734375,29.260207 0.0307734375,29.859375 C0.0307734375,30.458543 0.516445312,30.9442148 1.11561328,30.9442148 L8.70949219,30.9442148 C9.30866016,30.9442148 9.79433203,30.458543 9.79433203,29.859375 C9.79433203,29.260207 9.30866016,28.7745352 8.70964453,28.7745352 Z" id="Path"></path>
                <path d="M20.875207,13.7260195 C21.0871172,13.9377773 21.3646875,14.0438086 21.6424102,14.0438086 C21.9199805,14.0438086 22.1977031,13.9379297 22.4096133,13.7260195 C22.8332813,13.3023516 22.8332813,12.6154336 22.4096133,12.1917656 L17.0399531,6.82195313 C16.6164375,6.3984375 15.9296719,6.3984375 15.5056992,6.82195313 C15.0820312,7.24562109 15.0820312,7.93253906 15.5056992,8.35620703 L20.875207,13.7260195 Z" id="Path"></path>
                <path d="M55.4002617,45.1825664 C54.9768984,44.7590508 54.2895234,44.7590508 53.8661602,45.1825664 C53.4423398,45.6062344 53.4423398,46.2931523 53.8661602,46.7168203 L59.2359727,52.0866328 C59.4475781,52.2983906 59.7254531,52.4044219 60.0030234,52.4044219 C60.2805938,52.4044219 60.5583164,52.298543 60.7700742,52.0866328 C61.1938945,51.6629648 61.1938945,50.9760469 60.7700742,50.5523789 L55.4002617,45.1825664 Z" id="Path"></path>
                <path d="M54.6332109,14.0436563 C54.9107812,14.0436563 55.1885039,13.9377773 55.4002617,13.7258672 L60.7700742,8.35605469 C61.1938945,7.93238672 61.1938945,7.24546875 60.7700742,6.82180078 C60.3467109,6.39828516 59.6593359,6.39828516 59.2359727,6.82180078 L53.8661602,12.1916133 C53.4423398,12.6152812 53.4423398,13.3021992 53.8661602,13.7258672 C54.077918,13.9377773 54.3556406,14.0436563 54.6332109,14.0436563 Z" id="Path"></path>
                <path d="M20.875207,45.1825664 L15.5055469,50.5523789 C15.0818789,50.9760469 15.0818789,51.6629648 15.5055469,52.0866328 C15.717457,52.2983906 15.9950273,52.4044219 16.27275,52.4044219 C16.5504727,52.4044219 16.828043,52.298543 17.0399531,52.0866328 L22.4096133,46.7168203 C22.8332813,46.2931523 22.8332813,45.6062344 22.4096133,45.1825664 C21.985793,44.7590508 21.2990273,44.7590508 20.875207,45.1825664 Z" id="Path"></path>
            </g>
        </g>
    </g>
</svg>