<?xml version="1.0" encoding="UTF-8"?>
<svg width="60px" height="54px" viewBox="0 0 60 54" version="1.1" xmlns="http://www.w3.org/2000/svg" xmlns:xlink="http://www.w3.org/1999/xlink">
    <!-- Generator: sketchtool 63.1 (101010) - https://sketch.com -->
    <title>69E197E0-1081-42E3-8B7D-520E62DEB85F</title>
    <desc>Created with sketchtool.</desc>
    <g id="Mobile-(needed)-" stroke="none" stroke-width="1" fill="none" fill-rule="evenodd">
        <g id="home-" transform="translate(-154.000000, -2227.000000)" fill="#013CF6" fill-rule="nonzero">
            <g id="noun_networking_138311" transform="translate(154.000000, 2227.000000)">
                <path d="M29.925,5.9410625 C33.46185,5.9410625 36.7828125,6.878 39.6598875,8.509625 C39.5758125,8.018 39.5273625,7.5185375 39.5273625,7.013375 C39.5273625,6.6336125 39.5587125,6.2624 39.6043125,5.89475 C36.6795,4.462625 33.394875,3.656075 29.925,3.656075 C26.449425,3.656075 23.1612375,4.465475 20.2328625,5.9011625 C20.27775,6.266675 20.3083875,6.63575 20.3083875,7.0126625 C20.3083875,7.520675 20.259225,8.0229875 20.1744375,8.5174625 C23.055075,6.88085 26.3817375,5.9410625 29.925,5.9410625 Z" id="Path"></path>
                <path d="M49.7268,25.70225 C49.7268,25.7157875 49.7275125,25.729325 49.7275125,25.743575 C49.7275125,33.219125 45.56295,39.7385 39.4333125,43.108625 C39.9776625,43.6622375 40.468575,44.26145 40.901775,44.898425 C47.533725,41.082275 52.0125,33.928775 52.0125,25.743575 C52.0125,25.7300375 52.0117875,25.7165 52.0117875,25.70225 L49.7268,25.70225 Z" id="Path"></path>
                <path d="M20.40315,43.1007875 C14.2806375,39.728525 10.1224875,33.213425 10.1224875,25.743575 C10.1224875,25.7300375 10.1232,25.7165 10.1232,25.70225 L7.8382125,25.70225 C7.8382125,25.7157875 7.8375,25.729325 7.8375,25.743575 C7.8375,33.92165 12.30915,41.070875 18.9318375,44.88845 C19.36575,44.2521875 19.857375,43.6536875 20.40315,43.1007875 Z" id="Path"></path>
                <path d="M59.5942125,22.312175 C59.51655,17.8811375 56.659425,14.1006125 52.6501875,12.536675 C54.339525,11.2805375 55.4403375,9.2755625 55.4403375,7.013375 C55.4403375,3.2150375 52.3509375,0.1256375 48.5526,0.1256375 C44.754975,0.1256375 41.6648625,3.2150375 41.6648625,7.013375 C41.6648625,9.276275 42.7663875,11.28125 44.4564375,12.5373875 C40.3909125,14.1227 37.50885,17.9851625 37.50885,22.4967125 C37.50885,23.087375 37.9869375,23.5654625 38.5776,23.5654625 L58.5276,23.5654625 C58.5325875,23.56475 58.5368625,23.5654625 58.54185,23.5654625 C59.1325125,23.5654625 59.6106,23.087375 59.6106,22.4967125 C59.6106,22.4333 59.6049,22.372025 59.5942125,22.312175 Z M43.8023625,7.013375 C43.8023625,4.394225 45.93345,2.2631375 48.5526,2.2631375 C51.17175,2.2631375 53.3028375,4.394225 53.3028375,7.013375 C53.3028375,9.632525 51.17175,11.7636125 48.5526,11.7636125 C45.93345,11.7629 43.8023625,9.632525 43.8023625,7.013375 Z M39.71475,21.42725 C40.26195,17.1900125 44.016825,13.9004 48.5526,13.9004 C53.088375,13.9004 56.84325,17.190725 57.3897375,21.42725 L39.71475,21.42725 Z" id="Shape"></path>
                <path d="M21.2724,23.56475 C21.8630625,23.56475 22.34115,23.0866625 22.34115,22.496 C22.34115,22.4333 22.33545,22.3713125 22.325475,22.3114625 C22.2478125,17.880425 19.3906875,14.0999 15.38145,12.5359625 C17.0707875,11.279825 18.1716,9.27485 18.1716,7.0126625 C18.1716,3.214325 15.0822,0.124925 11.2838625,0.124925 C7.4862375,0.124925 4.396125,3.214325 4.396125,7.0126625 C4.396125,9.2755625 5.49765,11.2805375 7.1877,12.536675 C3.122175,14.1219875 0.2401125,17.98445 0.2401125,22.496 C0.2401125,23.0866625 0.7182,23.56475 1.3088625,23.56475 L21.2588625,23.56475 C21.2631375,23.5640375 21.2674125,23.56475 21.2724,23.56475 Z M6.533625,7.013375 C6.533625,4.394225 8.6647125,2.2631375 11.2838625,2.2631375 C13.9030125,2.2631375 16.0341,4.394225 16.0341,7.013375 C16.0341,9.632525 13.9030125,11.7636125 11.2838625,11.7636125 C8.6647125,11.7629 6.533625,9.632525 6.533625,7.013375 Z M2.4453,21.42725 C2.9925,17.1900125 6.747375,13.9004 11.28315,13.9004 C15.818925,13.9004 19.5745125,17.190725 20.121,21.42725 L2.4453,21.42725 Z" id="Shape"></path>
                <path d="M34.0154625,42.045575 C35.7048,40.7894375 36.8056125,38.7844625 36.8056125,36.522275 C36.8056125,32.7239375 33.7162125,29.6345375 29.917875,29.6345375 C26.12025,29.6345375 23.0301375,32.7239375 23.0301375,36.522275 C23.0301375,38.785175 24.1316625,40.79015 25.8217125,42.0462875 C21.7561875,43.6316 18.874125,47.4940625 18.874125,52.0056125 C18.874125,52.596275 19.3522125,53.0743625 19.942875,53.0743625 L39.892875,53.0743625 C39.8978625,53.07365 39.9021375,53.0743625 39.907125,53.0743625 C40.4977875,53.0743625 40.975875,52.596275 40.975875,52.0056125 C40.975875,51.9429125 40.970175,51.880925 40.9602,51.821075 C40.8825375,47.3900375 38.0247,43.6095125 34.0154625,42.045575 Z M25.1676375,36.5229875 C25.1676375,33.9038375 27.298725,31.77275 29.917875,31.77275 C32.537025,31.77275 34.6681125,33.9038375 34.6681125,36.5229875 C34.6681125,39.1421375 32.537025,41.273225 29.917875,41.273225 C27.298725,41.2725125 25.1676375,39.141425 25.1676375,36.5229875 Z M21.080025,50.9368625 C21.627225,46.699625 25.3821,43.4100125 29.917875,43.4100125 C34.45365,43.4100125 38.208525,46.699625 38.755725,50.9368625 L21.080025,50.9368625 L21.080025,50.9368625 Z" id="Shape"></path>
            </g>
        </g>
    </g>
</svg>