<?xml version="1.0" encoding="UTF-8"?>
<svg width="48px" height="54px" viewBox="0 0 48 54" version="1.1" xmlns="http://www.w3.org/2000/svg" xmlns:xlink="http://www.w3.org/1999/xlink">
    <!-- Generator: sketchtool 63.1 (101010) - https://sketch.com -->
    <title>B8E0AF39-BA91-47D7-89FC-6682F328C44E</title>
    <desc>Created with sketchtool.</desc>
    <g id="Mobile-(needed)-" stroke="none" stroke-width="1" fill="none" fill-rule="evenodd">
        <g id="home-" transform="translate(-556.000000, -2227.000000)" fill="#00DD78" fill-rule="nonzero">
            <g id="noun_same-day_1196247" transform="translate(556.000000, 2227.000000)">
                <path d="M2.97916667,26.8125 C2.97916667,15.5989167 11.8809167,6.44989583 22.98725,6.00302083 L22.7816875,6.20858333 C22.20075,6.78952083 22.20075,7.73391667 22.7816875,8.31485417 C23.0706667,8.6068125 23.452,8.75279167 23.8333333,8.75279167 C24.2146667,8.75279167 24.596,8.6068125 24.8879583,8.31783333 L27.6824167,5.523375 C28.2633542,4.9424375 28.2633542,3.99804167 27.6824167,3.41710417 L24.8879583,0.622645833 C24.3070208,0.0417083333 23.362625,0.0417083333 22.7816875,0.622645833 C22.20075,1.20358333 22.20075,2.14797917 22.7816875,2.72891667 L23.0706667,3.01789583 C10.2840833,3.42604167 0,13.9305833 0,26.8125 C0,33.5960625 2.9046875,40.0787292 7.96927083,44.598125 C8.25527083,44.8513542 8.6068125,44.9764792 8.96133333,44.9764792 C9.36947917,44.9764792 9.777625,44.8066667 10.0725625,44.4789583 C10.6207292,43.86525 10.5671042,42.9238333 9.95339583,42.3756667 C5.52039583,38.4193333 2.97916667,32.747 2.97916667,26.8125 Z" id="Path"></path>
                <path d="M47.6666667,26.8125 C47.6666667,20.0289375 44.7619792,13.5462708 39.6973958,9.026875 C39.0807083,8.47870833 38.1422708,8.5353125 37.5941042,9.14604167 C37.0459375,9.75975 37.0995625,10.7011667 37.7132708,11.2493333 C42.1462708,15.2056667 44.6875,20.878 44.6875,26.8125 C44.6875,38.0260833 35.78575,47.1751042 24.6794167,47.6219792 L24.8849792,47.4164167 C25.4659167,46.8354792 25.4659167,45.8910833 24.8849792,45.3101458 C24.3040417,44.7292083 23.3596458,44.7292083 22.7787083,45.3101458 L19.98425,48.1046042 C19.4033125,48.6855417 19.4033125,49.6299375 19.98425,50.210875 L22.7787083,53.0053333 C23.0706667,53.2972917 23.452,53.4402917 23.8333333,53.4402917 C24.2146667,53.4402917 24.596,53.2943125 24.8879583,53.0053333 C25.4688958,52.4243958 25.4688958,51.48 24.8879583,50.8990625 L24.5989792,50.6100833 C37.3825833,50.1989583 47.6666667,39.6944167 47.6666667,26.8125 Z" id="Path"></path>
                <path d="M36.4947917,26.8125 C36.4947917,19.8293333 30.8135208,14.1510417 23.8333333,14.1510417 C16.8531458,14.1510417 11.171875,19.8293333 11.171875,26.8125 C11.171875,33.7956667 16.8531458,39.4739583 23.8333333,39.4739583 C30.8135208,39.4739583 36.4947917,33.7956667 36.4947917,26.8125 Z M14.1510417,26.8125 C14.1510417,21.4738333 18.4946667,17.1302083 23.8333333,17.1302083 C29.172,17.1302083 33.515625,21.4738333 33.515625,26.8125 C33.515625,32.1511667 29.172,36.4947917 23.8333333,36.4947917 C18.4946667,36.4947917 14.1510417,32.1511667 14.1510417,26.8125 Z" id="Shape"></path>
                <path d="M23.2643125,28.188875 C23.4460417,28.260375 23.6396875,28.3020833 23.8333333,28.3020833 L26.6277917,28.3020833 C27.4500417,28.3020833 28.117375,27.63475 28.117375,26.8125 C28.117375,25.99025 27.4500417,25.3229167 26.6277917,25.3229167 L24.453,25.3229167 L22.0964792,22.9663958 C21.5155417,22.3854583 20.5711458,22.3854583 19.9902083,22.9663958 C19.4092708,23.5473333 19.4092708,24.4917292 19.9902083,25.0726667 L22.7816875,27.8641458 C22.91575,28.0011875 23.0825833,28.1143958 23.2643125,28.188875 Z" id="Path"></path>
            </g>
        </g>
    </g>
</svg>