<svg xmlns="http://www.w3.org/2000/svg" width="39" height="39" viewBox="0 0 39 39">
    <path fill="#FFF" d="M38.655 36.714l-7.926-7.867c5.911-6.86 5.575-17.214-.94-23.737C26.431 1.681 21.93 0 17.497 0S8.564 1.681 5.138 5.11c-6.85 6.859-6.85 17.887 0 24.745 3.359 3.362 7.86 5.11 12.36 5.11 4.03 0 8.127-1.412 11.35-4.236l7.927 7.935c.201.202.537.336.873.336.336 0 .672-.134.94-.403.538-.471.538-1.345.067-1.883zM7.02 27.905C4.198 25.148 2.72 21.383 2.72 17.483c0-3.9 1.545-7.666 4.3-10.49C9.84 4.17 13.533 2.69 17.496 2.69s7.658 1.546 10.479 4.303c2.753 2.824 4.298 6.523 4.298 10.49 0 3.967-1.545 7.665-4.298 10.49-2.821 2.756-6.583 4.303-10.479 4.303-3.895 0-7.657-1.547-10.478-4.37z"/>
</svg>
