<?xml version="1.0" encoding="UTF-8"?>
<svg width="18px" height="18px" viewBox="0 0 18 18" version="1.1" xmlns="http://www.w3.org/2000/svg" xmlns:xlink="http://www.w3.org/1999/xlink">
    <!-- Generator: sketchtool 63.1 (101010) - https://sketch.com -->
    <title>84CC5A68-CD74-4F40-BF2F-4855F7841875</title>
    <desc>Created with sketchtool.</desc>
    <g id="Round-4" stroke="none" stroke-width="1" fill="none" fill-rule="evenodd">
        <g id="home-" transform="translate(-327.000000, -29.000000)" fill="#2355F0" fill-rule="nonzero">
            <g id="header-scroll">
                <g id="noun_Search_875356" transform="translate(327.000000, 29.000000)">
                    <path d="M17.55,16.38 L14.01,12.87 C16.65,9.81 16.5,5.19 13.59,2.28 C12.09,0.75 10.08,0 8.1,0 C6.12,0 4.11,0.75 2.58,2.28 C-0.48,5.34 -0.48,10.26 2.58,13.32 C4.08,14.82 6.09,15.6 8.1,15.6 C9.9,15.6 11.73,14.97 13.17,13.71 L16.71,17.25 C16.8,17.34 16.95,17.4 17.1,17.4 C17.25,17.4 17.4,17.34 17.52,17.22 C17.76,17.01 17.76,16.62 17.55,16.38 Z M3.42,12.45 C2.16,11.22 1.5,9.54 1.5,7.8 C1.5,6.06 2.19,4.38 3.42,3.12 C4.68,1.86 6.33,1.2 8.1,1.2 C9.87,1.2 11.52,1.89 12.78,3.12 C14.01,4.38 14.7,6.03 14.7,7.8 C14.7,9.57 14.01,11.22 12.78,12.48 C11.52,13.71 9.84,14.4 8.1,14.4 C6.36,14.4 4.68,13.71 3.42,12.45 Z" id="Shape"></path>
                </g>
            </g>
        </g>
    </g>
</svg>