<?xml version="1.0" encoding="UTF-8"?>
<svg width="18px" height="17px" viewBox="0 0 18 17" version="1.1" xmlns="http://www.w3.org/2000/svg" xmlns:xlink="http://www.w3.org/1999/xlink">
    <!-- Generator: sketchtool 63.1 (101010) - https://sketch.com -->
    <title>17502E7D-26FE-4CE9-9851-2FF0A3C76F96</title>
    <desc>Created with sketchtool.</desc>
    <g id="Round-5-w/-Mobile" stroke="none" stroke-width="1" fill="none" fill-rule="evenodd">
        <g id="Experts-GR-search-1" transform="translate(-320.000000, -2172.000000)" fill="#283465" fill-rule="nonzero">
            <g id="Group-17-Copy-11" transform="translate(112.000000, 2029.000000)">
                <g id="Group-16" transform="translate(207.000000, 34.000000)">
                    <g id="noun_Work_789428-Copy-7" transform="translate(1.000000, 109.000000)">
                        <g id="Group">
                            <g id="Shape">
                                <path d="M14,4 L14,2 C14,0.89 13.11,0 12,0 L6,0 C4.89,0 4,0.89 4,2 L4,4 L2,4 C0.89,4 0,4.89 0,6 L0,15 C0,16.11 0.89,17 2,17 L16,17 C17.11,17 18,16.11 18,15 L18,6 C18,4.89 17.11,4 16,4 L14,4 Z M12,2 L12,4 L6,4 L6,2 L12,2 Z"></path>
                            </g>
                        </g>
                    </g>
                </g>
            </g>
        </g>
    </g>
</svg>