<?xml version="1.0" encoding="UTF-8"?>
<svg width="33px" height="33px" viewBox="0 0 33 33" version="1.1" xmlns="http://www.w3.org/2000/svg" xmlns:xlink="http://www.w3.org/1999/xlink">
    <!-- Generator: sketchtool 63.1 (101010) - https://sketch.com -->
    <title>66AF5EF1-E144-41E1-8FEC-1D44D1B63CE2</title>
    <desc>Created with sketchtool.</desc>
    <g id="Round-5-w/-Mobile" stroke="none" stroke-width="1" fill="none" fill-rule="evenodd">
        <g id="Experts-GR-search-1" transform="translate(-546.000000, -645.000000)">
            <g id="Group-11" transform="translate(546.000000, 645.000000)">
                <circle id="Oval-Copy-16" fill="#A0B2E8" cx="16.5" cy="16.5" r="16.5"></circle>
                <path d="M16.9136311,9.00628442 C17.0041012,8.99244644 17.0965317,9.00154297 17.1827137,9.03276618 L17.1827137,9.03276618 L26.6266468,12.4224311 C26.851733,12.5019506 27.0018935,12.7185806 26.9999463,12.9608935 L26.9999463,12.9608935 L26.9999463,16.6330305 C27.0027252,16.8367706 26.897467,17.0262801 26.7244216,17.1289914 C26.5513762,17.2317028 26.3373538,17.2317028 26.1643084,17.1289914 C25.9912629,17.0262801 25.8860047,16.8367706 25.8888395,16.6330305 L25.8888395,16.6330305 L25.8888395,13.7553462 L23.1112121,14.7528258 L23.1112121,19.6078146 C23.1112121,20.0952484 22.8183702,20.4850458 22.4602057,20.7641847 C22.1020412,21.0433236 21.647667,21.2571267 21.1061124,21.4350558 C20.023003,21.7909142 18.5874018,22 17.000432,22 C15.4134612,22 13.9778595,21.7909142 12.8947515,21.4350558 C12.3531975,21.2571267 11.8988221,21.0433236 11.5406582,20.7641847 C11.1824942,20.4850458 10.8896518,20.0952484 10.8896518,19.6078146 L10.8896518,19.6078146 L10.8896518,14.7528258 L7.37421713,13.4905287 C7.15026139,13.411872 7,13.1974326 7,12.9564799 C7,12.7155272 7.15026139,12.5010877 7.37421713,12.4224311 L7.37421713,12.4224311 L16.8181502,9.03276618 C16.8491391,9.02106796 16.8810928,9.01220555 16.9136311,9.00628442 Z" id="Combined-Shape-Copy" fill="#4F68B8" fill-rule="nonzero"></path>
            </g>
        </g>
    </g>
</svg>