<?xml version="1.0" encoding="UTF-8"?>
<svg width="33px" height="33px" viewBox="0 0 33 33" version="1.1" xmlns="http://www.w3.org/2000/svg" xmlns:xlink="http://www.w3.org/1999/xlink">
    <!-- Generator: sketchtool 63.1 (101010) - https://sketch.com -->
    <title>9710D7A7-4DD1-43B1-91FF-6189794FEE0A</title>
    <desc>Created with sketchtool.</desc>
    <g id="Round-5-w/-Mobile" stroke="none" stroke-width="1" fill="none" fill-rule="evenodd">
        <g id="Experts-GR-search-1" transform="translate(-222.000000, -849.000000)">
            <g id="Group-10" transform="translate(222.000000, 849.000000)">
                <circle id="Oval-Copy-17" fill="#81CEDB" cx="16.5" cy="16.5" r="16.5"></circle>
                <path d="M23.9988556,15.4427798 C23.9185185,17.7125792 23.057251,22.138303 21.2693212,22.6163246 C19.3461943,23.1304766 17.9549722,23.1789296 14.6265327,22.4465665 C13.9368792,22.339541 13.2405955,22.2819377 12.5428951,22.2741881 C12.4163187,22.2713933 12.3152877,22.1666771 12.315736,22.0387712 C12.315736,20.8847547 12.315736,15.7770695 12.315736,14.9008865 C12.3144545,14.8283072 12.3480287,14.7595817 12.4058545,14.7164927 C12.8579769,14.3909982 13.129363,13.5376354 13.6178354,13.0968203 C14.5350792,12.2690759 15.2357133,12.0213886 15.8503144,11.5524119 C16.9082699,10.7451673 17.1018434,9.72184897 17.4370406,8.91854847 C17.711984,8.25960848 18.1657135,7.7894248 18.842835,8.09572704 C19.5267794,8.4050861 20.2402614,9.65851771 19.3838882,11.4436754 C19.1351383,11.9621864 18.7781653,12.3387364 18.4505307,13.2540439 C18.3745545,13.4663137 18.3583768,13.8025951 18.5981632,13.7874457 C19.940088,13.6850601 21.2881597,13.6968957 22.6281204,13.8228272 C23.4331244,13.9193399 24.0297125,14.6243955 23.9988556,15.4427798 L23.9988556,15.4427798 Z M11.426924,22.1889185 L11.426924,14.4043121 C11.426924,14.2797425 11.3779427,14.1602748 11.2907541,14.0721907 C11.2035654,13.9841067 11.0853122,13.9346223 10.9620088,13.9346223 L8.4649152,13.9346223 C8.34161188,13.9346223 8.2233586,13.9841067 8.13616999,14.0721907 C8.04898137,14.1602748 8,14.2797425 8,14.4043121 L8,22.1889185 C8,22.3134884 8.04898069,22.4329566 8.13616936,22.521041 C8.22335803,22.6091254 8.34161157,22.65861 8.4649152,22.65861 L10.9620088,22.65861 C11.0853125,22.65861 11.203566,22.6091254 11.2907547,22.521041 C11.3779434,22.4329566 11.426924,22.3134884 11.426924,22.1889185 Z" id="Shape-Copy" fill="#38808C" fill-rule="nonzero"></path>
            </g>
        </g>
    </g>
</svg>