<?xml version="1.0" encoding="UTF-8"?>
<svg width="13px" height="22px" viewBox="0 0 13 22" version="1.1" xmlns="http://www.w3.org/2000/svg" xmlns:xlink="http://www.w3.org/1999/xlink">
    <!-- Generator: sketchtool 63.1 (101010) - https://sketch.com -->
    <title>6DD6A3C9-A61C-4D64-A900-55FA0FBEB97D</title>
    <desc>Created with sketchtool.</desc>
    <g id="Mobile-(needed)-" stroke="none" stroke-width="1" fill="none" fill-rule="evenodd">
        <g id="home-" transform="translate(-814.000000, -1870.000000)" fill="#013DFA" fill-rule="nonzero">
            <g id="noun_Arrow_2497036-Copy" transform="translate(820.500000, 1881.000000) rotate(180.000000) translate(-820.500000, -1881.000000) translate(814.000000, 1870.000000)">
                <path d="M0.39126934,11.3454957 C0.431838163,11.6918964 0.588777097,12.0142714 0.83640634,12.2598707 L10.0763909,21.4998707 C10.4675333,21.8889484 11.036545,22.039779 11.5690565,21.8955385 C12.101568,21.751298 12.5166655,21.3339035 12.6579652,20.8006041 C12.7992649,20.2673047 12.6452967,19.6991341 12.2540664,19.3101447 L4.10890634,11.1650077 L12.2540664,3.0198553 C12.6452967,2.63086593 12.7992649,2.06269527 12.6579652,1.52939588 C12.5166655,0.996096504 12.101568,0.578701988 11.5690565,0.43446151 C11.036545,0.290221032 10.4675333,0.441051592 10.0763909,0.8301293 L0.83640634,10.0701293 C0.499567427,10.4040336 0.335358185,10.8745111 0.39126934,11.3454957 L0.39126934,11.3454957 Z" id="Path"></path>
            </g>
        </g>
    </g>
</svg>