<?xml version="1.0" encoding="UTF-8"?>
<svg width="143px" height="143px" viewBox="0 0 143 143" version="1.1" xmlns="http://www.w3.org/2000/svg" xmlns:xlink="http://www.w3.org/1999/xlink">
    <!-- Generator: sketchtool 63.1 (101010) - https://sketch.com -->
    <title>74EDFB72-3343-4685-9E6D-981659015BA7</title>
    <desc>Created with sketchtool.</desc>
    <defs>
        <path d="M21.1732139,21.1465493 C7.33373267,35.0464093 0.746518812,53.93744 0.41510297,72.0872187 L0.41510297,72.0872187 C0.0573960396,91.7220867 0.448429703,142.618436 0.448429703,142.618436 L0.448429703,142.618436 C0.448429703,142.618436 52.0156238,142.714093 71.3680871,142.363227 L71.3680871,142.363227 C88.4528515,142.052617 109.097651,134.147407 122.088782,121.099229 L122.088782,121.099229 C149.767374,93.2995093 149.614812,48.387468 121.748479,20.7868187 L121.748479,20.7868187 C107.880855,7.05168133 89.7607406,0.190945333 71.6465505,0.190945333 L71.6465505,0.190945333 C53.3594317,0.190945333 35.0778673,7.18057867 21.1732139,21.1465493 L21.1732139,21.1465493 Z" id="path-1"></path>
        <path d="M0.127752475,18.750684 L11.3484931,20.9892133 C12.4256871,14.8113747 16.2860337,10.6929387 22.3000277,10.6929387 L22.3000277,10.6929387 C27.8652218,10.6929387 31.6355861,14.3637427 31.6355861,19.645948 L31.6355861,19.645948 C31.6355861,24.301764 27.8652218,27.4355573 22.3000277,27.4355573 L22.3000277,27.4355573 L15.4776752,27.4355573 L15.4776752,41.402636 L26.3392277,41.402636 L26.3392277,36.388936 C36.5723861,35.1354187 43.1255327,28.6890747 43.1255327,19.645948 L43.1255327,19.645948 C43.1255327,8.09652533 34.7775564,0.217537333 22.3000277,0.217537333 L22.3000277,0.217537333 C9.64290495,0.217537333 0.845758416,8.90241067 0.127752475,18.750684 L0.127752475,18.750684 Z M13.6824752,55.10084 C13.6824752,58.9507707 16.6444812,61.9054373 20.7740337,61.9054373 L20.7740337,61.9054373 C24.9032158,61.9054373 27.8652218,58.9507707 27.8652218,55.10084 L27.8652218,55.10084 C27.8652218,51.4304053 24.9032158,48.206864 20.7740337,48.206864 L20.7740337,48.206864 C16.6444812,48.206864 13.6824752,51.4304053 13.6824752,55.10084 L13.6824752,55.10084 Z" id="path-3"></path>
    </defs>
    <g id="Round-4" stroke="none" stroke-width="1" fill="none" fill-rule="evenodd">
        <g id="sign-up-pop-up" transform="translate(-340.000000, -241.000000)">
            <g id="Group-26" transform="translate(297.000000, 241.000000)">
                <g id="Group-9" transform="translate(42.954455, 0.000000)">
                    <g id="Group-3" transform="translate(0.000000, 0.000000)">
                        <mask id="mask-2" fill="white">
                            <use xlink:href="#path-1"></use>
                        </mask>
                        <g id="Clip-2"></g>
                        <polygon id="Fill-1" fill="#2355F0" mask="url(#mask-2)" points="71.2713285 -34.4131135 177.442523 70.7449505 50.9242473 197.817777 -55.2469467 92.6597132"></polygon>
                    </g>
                    <g id="Group-6" transform="translate(48.138614, 43.950667)">
                        <mask id="mask-4" fill="white">
                            <use xlink:href="#path-3"></use>
                        </mask>
                        <g id="Clip-5"></g>
                        <polygon id="Fill-4" fill="#FFFFFF" mask="url(#mask-4)" points="-3.57521782 65.5984013 46.828503 65.5984013 46.828503 -3.475796 -3.57521782 -3.475796"></polygon>
                    </g>
                </g>
            </g>
        </g>
    </g>
</svg>