<?xml version="1.0" encoding="UTF-8"?>
<svg width="54px" height="154px" viewBox="0 0 54 154" version="1.1" xmlns="http://www.w3.org/2000/svg" xmlns:xlink="http://www.w3.org/1999/xlink">
    <!-- Generator: sketchtool 63.1 (101010) - https://sketch.com -->
    <title>DFA85AAE-4A47-4F15-97D2-E23408C3EA5B</title>
    <desc>Created with sketchtool.</desc>
    <defs>
        <path d="M14.007596,0.580961333 C10.2550059,1.45702 6.50278614,3.30257867 3.87108515,6.21846533 L3.87108515,6.21846533 C0.466944554,9.990836 0.647279208,14.1665187 0.261059406,18.9320267 L0.261059406,18.9320267 L7.35780198,22.861364 L6.86826931,47.751476 L36.900099,52.936916 L36.900099,22.166648 L39.1459505,25.518348 L47.4050554,18.1084133 C47.6394535,17.8871827 45.2773287,13.5981147 45.0507069,13.1623013 L45.0507069,13.1623013 C43.5576693,10.2674667 41.6939644,7.67031467 39.1333604,5.62125333 L39.1333604,5.62125333 C35.244501,2.508512 30.4713723,1.48878267 25.6467723,0.815857333 L25.6467723,0.815857333 C23.164301,0.470161333 20.7836614,0.102305333 18.3785822,0.102305333 L18.3785822,0.102305333 C16.9396079,0.102305333 15.4917465,0.233788 14.007596,0.580961333 L14.007596,0.580961333 Z" id="path-1"></path>
        <path d="M11.7476733,2.231512 C7.77845941,2.37148933 3.87367723,3.74984133 0.654314851,6.06556133 L0.654314851,6.06556133 C-0.447318812,6.85815067 0.347708911,8.583676 1.66041188,8.23317867 L1.66041188,8.23317867 C5.59629901,7.18020933 9.53144554,6.11763733 13.4610376,5.04287733 L13.4610376,5.04287733 C13.5102871,3.536736 13.2073842,1.89652667 13.0333446,0.187252 L13.0333446,0.187252 L11.7476733,2.231512 Z" id="path-3"></path>
        <path d="M11.8154376,1.93826133 C7.84585347,2.07897733 3.94070099,3.45696 0.722079208,5.77304933 L0.722079208,5.77304933 C-0.271427723,6.48697067 0.276982178,7.95913333 1.35565743,7.986464 L1.35565743,7.986464 L1.41675644,7.986464 C1.51636634,7.98387867 1.6200495,7.96910533 1.72743564,7.94066667 L1.72743564,7.94066667 C5.66332277,6.88695867 9.59846931,5.82512533 13.5284317,4.749996 L13.5284317,4.749996 C13.5773109,3.244224 13.6265604,1.73808267 13.6750693,0.232310667 L13.6750693,0.232310667 L11.8154376,1.93826133 Z" id="path-5"></path>
        <path d="M0.311790099,6.66092667 L0.311790099,26.878972 C0.311790099,26.878972 0.413251485,31.6226893 4.16880396,31.6226893 L4.16880396,31.6226893 C9.27668119,31.6226893 8.70494257,27.0798893 8.70494257,27.0798893 L8.70494257,27.0798893 L7.66811089,20.6424093 L12.7267386,18.70858 L13.4106772,6.66092667 C13.4106772,3.06916 10.4642238,0.131482667 6.86197426,0.131482667 L6.86197426,0.131482667 C3.25972475,0.131482667 0.311790099,3.06916 0.311790099,6.66092667 L0.311790099,6.66092667 Z" id="path-7"></path>
        <path d="M10.4371921,0.298421333 C8.74900792,0.490844 7.08637426,0.854268 5.47150891,1.38093733 L5.47150891,1.38093733 C4.07919208,1.83447867 2.67058218,2.453112 1.73150891,3.71918667 L1.73150891,3.71918667 C0.0214772277,6.02715067 0.0151821782,10.651204 0.817986139,13.6564693 L0.817986139,13.6564693 C2.33287129,19.3253667 4.62908317,15.554104 6.19025545,13.037836 L6.19025545,13.037836 C7.57405545,10.807432 10.2168653,10.3350547 12.6300911,10.3117867 L12.6300911,10.3117867 C12.9681723,10.3084627 13.3095861,10.30994 13.6521109,10.3117867 L13.6521109,10.3117867 C15.7505842,10.322128 17.8931228,10.3324693 19.654996,9.18236533 L19.654996,9.18236533 C19.9338297,9.001392 20.2048871,8.78496267 20.3800376,8.47066 L20.3800376,8.47066 C20.6055485,8.06550133 20.6462812,7.53957067 20.6188792,7.032476 L20.6188792,7.032476 C20.4818693,4.49257067 18.7429545,2.21341467 16.741499,1.155644 L16.741499,1.155644 C15.3528851,0.421778667 13.861699,0.178018667 12.3786594,0.178018667 L12.3786594,0.178018667 C11.7269366,0.178018667 11.076695,0.225293333 10.4371921,0.298421333 L10.4371921,0.298421333 Z" id="path-9"></path>
    </defs>
    <g id="Round-4" stroke="none" stroke-width="1" fill="none" fill-rule="evenodd">
        <g id="sign-up-pop-up" transform="translate(-297.000000, -364.000000)">
            <g id="Group-26" transform="translate(297.000000, 241.000000)">
                <g id="Group-8" transform="translate(0.000000, 123.726667)">
                    <polygon id="Fill-7" fill="#2F2FFF" points="41.6579715 38.3017503 36.2401556 42.8449196 47.0761576 57.9901716 35.937623 79.6973689 35.3358903 86.0070596 38.9488784 78.4346183 53.3971279 57.2322996 42.5607556 38.3017503"></polygon>
                    <polygon id="Fill-8" fill="#2F2FFF" points="2.62170297 44.5309263 1.08756238 65.4691716 10.9974515 86.9207903 13.4751089 93.1108169 13.0622277 87.9515996 5.42411089 66.0881743 6.9567703 48.2453116 3.2408396 44.5309263"></polygon>
                    <polygon id="Fill-9" fill="#020251" points="7.78134772 74.9960511 5.12631802 110.107463 12.5081893 148.270307 17.0517339 148.270307 14.6055517 109.556787 21.4408646 74.9960511"></polygon>
                    <polygon id="Fill-10" fill="#020251" points="22.6210752 78.2898027 28.1740495 148.736812 32.7179644 148.736812 36.2824436 78.2898027"></polygon>
                    <g id="Group-13" transform="translate(-0.000000, 28.069333)">
                        <mask id="mask-2" fill="white">
                            <use xlink:href="#path-1"></use>
                        </mask>
                        <g id="Clip-12"></g>
                        <polygon id="Fill-11" fill="#FC5039" mask="url(#mask-2)" points="-3.44191089 56.6302493 51.1243188 56.6302493 51.1243188 -3.59065867 -3.44191089 -3.59065867"></polygon>
                    </g>
                    <g id="Group-16" transform="translate(3.702970, 143.301333)">
                        <mask id="mask-4" fill="white">
                            <use xlink:href="#path-3"></use>
                        </mask>
                        <g id="Clip-15"></g>
                        <polygon id="Fill-14" fill="#2F2FFF" mask="url(#mask-4)" points="-3.56892277 11.9726787 17.1691921 11.9726787 17.1691921 -3.50645067 -3.56892277 -3.50645067"></polygon>
                    </g>
                    <g id="Group-19" transform="translate(19.255446, 144.409333)">
                        <mask id="mask-6" fill="white">
                            <use xlink:href="#path-5"></use>
                        </mask>
                        <g id="Clip-18"></g>
                        <polygon id="Fill-17" fill="#2F2FFF" mask="url(#mask-6)" points="-3.50152871 11.6797973 17.3784099 11.6797973 17.3784099 -3.461392 -3.50152871 -3.461392"></polygon>
                    </g>
                    <g id="Group-22" transform="translate(17.033663, 3.693333)">
                        <mask id="mask-8" fill="white">
                            <use xlink:href="#path-7"></use>
                        </mask>
                        <g id="Clip-21"></g>
                        <polygon id="Fill-20" fill="#2F2FFF" mask="url(#mask-8)" points="-3.3911802 35.316392 17.1136475 35.316392 17.1136475 -3.56185067 -3.3911802 -3.56185067"></polygon>
                    </g>
                    <g id="Group-25" transform="translate(14.441584, 0.000000)">
                        <mask id="mask-10" fill="white">
                            <use xlink:href="#path-9"></use>
                        </mask>
                        <g id="Clip-24"></g>
                        <polygon id="Fill-23" fill="#020251" mask="url(#mask-10)" points="-3.40228911 20.3100093 24.329996 20.3100093 24.329996 -3.51531467 -3.40228911 -3.51531467"></polygon>
                    </g>
                </g>
            </g>
        </g>
    </g>
</svg>